<svg 
 xmlns="http://www.w3.org/2000/svg"
 xmlns:xlink="http://www.w3.org/1999/xlink"
 width="376px" height="200px">
<path fill-rule="evenodd"  fill="rgb(0, 0, 0)"
 d="M110.330,198.186 L-0.000,198.186 L-0.000,100.252 L-0.000,87.856 L-0.000,40.358 L59.894,40.358 L6.198,94.054 L110.330,198.186 Z"/>
<path fill-rule="evenodd"  fill="rgb(254, 124, 90)"
 d="M68.204,0.569 C107.804,0.569 139.906,32.671 139.906,72.271 C139.906,111.871 107.804,143.973 68.204,143.973 C69.503,117.403 68.620,54.287 68.204,0.569 Z"/>
<path fill-rule="evenodd"  fill="rgb(0, 0, 0)"
 d="M244.836,198.186 L214.056,198.186 L214.056,124.736 C211.743,124.736 209.234,124.736 206.488,124.736 C206.447,124.736 206.402,124.736 206.361,124.736 L206.361,198.186 L175.582,198.186 L175.582,124.736 C172.724,124.736 169.902,124.736 167.188,124.736 L167.188,198.186 L136.408,198.186 L136.408,117.740 L136.409,117.740 C136.409,117.738 136.408,117.735 136.408,117.733 C136.408,113.865 139.450,110.730 143.202,110.730 L238.019,110.730 C241.771,110.730 244.813,113.865 244.813,117.733 C244.813,117.735 244.813,117.738 244.813,117.740 L244.836,117.740 L244.836,198.186 Z"/>
<path fill-rule="evenodd"  fill="rgb(252, 209, 0)"
 d="M276.365,173.703 C283.126,173.703 288.607,179.184 288.607,185.945 C288.607,192.706 283.126,198.186 276.365,198.186 C269.604,198.186 264.123,192.706 264.123,185.945 C264.123,179.184 269.604,173.703 276.365,173.703 Z"/>
<text kerning="auto" font-family="Adobe Fan Heiti Std" fill="rgb(0, 0, 0)" transform="matrix( 2.57310417449438, 0, 0, 2.57310413169374,183.391906936657, 82.0117289218562)" font-size="20px"><tspan font-size="20px" font-family="Montserrat">TEMP</tspan></text>
<path fill-rule="evenodd"  stroke="rgb(0, 0, 0)" stroke-width="2px" stroke-linecap="butt" stroke-linejoin="miter" fill="none"
 d="M172.578,26.442 L344.050,26.442 C349.573,26.442 354.050,30.919 354.050,36.442 L354.050,90.011 C354.050,95.534 349.573,100.011 344.050,100.011 L172.578,100.011 C167.055,100.011 162.578,95.534 162.578,90.011 L162.578,36.442 C162.578,30.919 167.055,26.442 172.578,26.442 Z"/>
<path fill-rule="evenodd"  fill="rgb(252, 209, 0)"
 d="M300.488,176.569 L374.292,129.123 L347.933,108.036 L289.945,166.025 L300.488,176.569 Z"/>
</svg>